<?xml version="1.0" encoding="UTF-8"?><svg xmlns="http://www.w3.org/2000/svg" viewBox="0 0 48 48"><defs><style>.cls-1{fill:#fff;}.cls-2{fill:#009aa6;}</style></defs><g id="BG"><rect class="cls-2" width="48" height="48"/></g><g id="A"><path class="cls-1" d="M43.2,39.9c0,.3-.1.9-.2,1.9,0,.5-.2.9-.5,1.2-.2,0-.6.1-1.1.1-1.4,0-3.1-.3-5.1-.8-2.2-.5-3.7-1-4.5-1.7-.3-.3-.7-1.2-1-2.7-.5-2-1-3.7-1.5-5-1.6.2-3.9.6-6.9,1.2-3,.7-5,1.2-5.9,1.7-.6,1.3-1.4,2.9-2.5,4.8-.1.4-.3.8-.4,1.2-.1.4-.5.7-1.1.9-.1,0-.3,0-.6,0-1,0-2.7-.4-5-1.1-2.3-.7-3.5-1.2-3.6-1.5-.2-.4.2-1.5,1.2-3.1,1.3-2.4,2.1-3.9,2.3-4.4-.9-.6-1.3-1.3-1.3-1.9s0-.3,0-.5c0-.4,1.3-1,3.8-1.9l8-19.8c.1-.4.1-1,0-2,0-.8,0-1.3.4-1.5.2-.1.7-.2,1.5-.2,1.9,0,4.7.4,8.3,1.1,3.6.7,5.7,1.4,6.4,1.9.2,3.3,1.2,8.3,2.8,15,2.1,8.2,4.2,13.9,6.3,17ZM27,26.3c-.5-1.9-.9-3.1-1-3.7-.5-2-.8-4.1-.9-6.2-.8,1.5-1.8,3.5-2.9,6.1-1.2,2.7-1.8,4.4-1.9,5.1.8-.2,3-.7,6.7-1.3Z"/></g></svg>